<svg width="500" height="500" viewBox="0 0 500 500" fill="none" xmlns="http://www.w3.org/2000/svg">
<rect width="500" height="500" rx="8" fill="#DADADA"/>
<path fill-rule="evenodd" clip-rule="evenodd" d="M287.5 184.375C287.5 205.086 270.711 221.875 250 221.875C229.289 221.875 212.5 205.086 212.5 184.375C212.5 163.664 229.289 146.875 250 146.875C270.711 146.875 287.5 163.664 287.5 184.375ZM315.625 184.375C315.625 220.619 286.244 250 250 250C213.756 250 184.375 220.619 184.375 184.375C184.375 148.131 213.756 118.75 250 118.75C286.244 118.75 315.625 148.131 315.625 184.375ZM146.875 334.375C146.875 330.54 151.005 319.208 171.617 307.024C190.704 295.741 218.496 287.5 250 287.5C281.504 287.5 309.296 295.741 328.383 307.024C348.995 319.208 353.125 330.54 353.125 334.375C353.125 344.73 344.73 353.125 334.375 353.125H165.625C155.27 353.125 146.875 344.73 146.875 334.375ZM250 259.375C177.812 259.375 118.75 296.875 118.75 334.375C118.75 360.263 139.737 381.25 165.625 381.25H334.375C360.263 381.25 381.25 360.263 381.25 334.375C381.25 296.875 322.187 259.375 250 259.375Z" fill="#606060"/>
</svg>
