<svg width="264" height="264" viewBox="-118 -118 500 500" fill="none" style="background-color:#DADADA" xmlns="http://www.w3.org/2000/svg">
<path fill-rule="evenodd" clip-rule="evenodd" d="M169.5 66.375C169.5 87.0857 152.711 103.875 132 103.875C111.289 103.875 94.5 87.0857 94.5 66.375C94.5 45.6643 111.289 28.875 132 28.875C152.711 28.875 169.5 45.6643 169.5 66.375ZM197.625 66.375C197.625 102.619 168.244 132 132 132C95.7563 132 66.375 102.619 66.375 66.375C66.375 30.1313 95.7563 0.75 132 0.75C168.244 0.75 197.625 30.1313 197.625 66.375ZM28.875 216.375C28.875 212.54 33.0051 201.208 53.6167 189.024C72.7036 177.741 100.496 169.5 132 169.5C163.504 169.5 191.296 177.741 210.383 189.024C230.995 201.208 235.125 212.54 235.125 216.375C235.125 226.73 226.73 235.125 216.375 235.125H47.625C37.2697 235.125 28.875 226.73 28.875 216.375ZM132 141.375C59.8125 141.375 0.75 178.875 0.75 216.375C0.75 242.263 21.7367 263.25 47.625 263.25H216.375C242.263 263.25 263.25 242.263 263.25 216.375C263.25 178.875 204.187 141.375 132 141.375Z" fill="white"/>
</svg>
