<svg width="1440" height="900" viewBox="0 0 1440 900" fill="none" xmlns="http://www.w3.org/2000/svg">
<g clip-path="url(#clip0_178_24112)">
<path d="M3.70264 231.678C22.0802 151.793 53.5624 75.5032 96.8711 5.90653" stroke="#EBEBEB" stroke-width="10" stroke-miterlimit="10" stroke-linecap="round" stroke-linejoin="round"/>
<path d="M250.215 971.11C87.9089 834.529 -15.3096 629.38 -15.3096 400.002C-15.3096 391.29 -15.1596 382.612 -14.8658 373.974" stroke="#EBEBEB" stroke-width="10" stroke-miterlimit="10" stroke-linecap="round" stroke-linejoin="round"/>
<path d="M1353.89 5.13167C1425.28 119.591 1466.56 254.953 1466.56 400.002C1466.56 629.045 1363.64 833.932 1201.74 970.513" stroke="#EBEBEB" stroke-width="10" stroke-miterlimit="10" stroke-linecap="round" stroke-linejoin="round"/>
<path d="M484.067 202.824C537.643 126.754 601.049 58.1073 672.635 -1.32829" stroke="#EBEBEB" stroke-width="10" stroke-miterlimit="10" stroke-linecap="round" stroke-linejoin="round"/>
<path d="M298.78 940.05C272.108 721.992 314.277 509.145 409.53 325.468" stroke="#EBEBEB" stroke-width="10" stroke-miterlimit="10" stroke-linecap="round" stroke-linejoin="round"/>
<path d="M1069 382.127C1003.09 234.165 903.788 102.537 778.62 -1.32504" stroke="#EBEBEB" stroke-width="10" stroke-miterlimit="10" stroke-linecap="round" stroke-linejoin="round"/>
<path d="M1149.03 657.211C1141.98 609.619 1131.7 562.565 1118.23 516.377" stroke="#EBEBEB" stroke-width="10" stroke-miterlimit="10" stroke-linecap="round" stroke-linejoin="round"/>
<path d="M1152.03 943.601C1158.24 894.219 1160.97 844.462 1160.21 794.698" stroke="#EBEBEB" stroke-width="10" stroke-miterlimit="10" stroke-linecap="round" stroke-linejoin="round"/>
<path d="M377.08 249.228C270.343 248.684 161.996 260.137 53.7153 284.571" stroke="#EBEBEB" stroke-width="10" stroke-miterlimit="10" stroke-linecap="round" stroke-linejoin="round"/>
<path d="M1034.2 413.306C875.291 330 700.704 276.225 519.083 257.062" stroke="#EBEBEB" stroke-width="10" stroke-miterlimit="10" stroke-linecap="round" stroke-linejoin="round"/>
<path d="M1406.75 693.514C1331.6 615.062 1247.85 545.339 1157.07 485.667" stroke="#EBEBEB" stroke-width="10" stroke-miterlimit="10" stroke-linecap="round" stroke-linejoin="round"/>
<path d="M1131.95 386.236C1202.95 271.95 1257.59 148.283 1294.27 18.8374" stroke="#EBEBEB" stroke-width="10" stroke-miterlimit="10" stroke-linecap="round" stroke-linejoin="round"/>
<path d="M377.083 989.391C644.951 897.01 879.36 726.917 1050.93 503.346" stroke="#EBEBEB" stroke-width="10" stroke-miterlimit="10" stroke-linecap="round" stroke-linejoin="round"/>
<path d="M725.623 22.4629C686.332 22.4629 654.37 -9.65577 654.37 -49.14C654.37 -88.6212 686.332 -120.74 725.623 -120.74C764.913 -120.74 796.875 -88.6212 796.875 -49.14C796.875 -9.65577 764.913 22.4629 725.623 22.4629Z" stroke="#EBEBEB" stroke-width="10" stroke-miterlimit="10" stroke-linecap="round" stroke-linejoin="round"/>
<path d="M448.333 337.064C409.042 337.064 377.08 304.943 377.08 265.462C377.08 225.98 409.042 193.859 448.333 193.859C487.624 193.859 519.586 225.98 519.586 265.462C519.586 304.943 487.624 337.064 448.333 337.064Z" stroke="#EBEBEB" stroke-width="10" stroke-miterlimit="10" stroke-linecap="round" stroke-linejoin="round"/>
<path d="M1096.37 519.836C1057.07 519.836 1025.11 487.714 1025.11 448.233C1025.11 408.752 1057.07 376.63 1096.37 376.63C1135.66 376.63 1167.62 408.752 1167.62 448.233C1167.62 487.714 1135.66 519.836 1096.37 519.836Z" stroke="#EBEBEB" stroke-width="10" stroke-miterlimit="10" stroke-linecap="round" stroke-linejoin="round"/>
<path d="M1312.04 18.8379C1272.75 18.8379 1240.78 -13.2839 1240.78 -52.765C1240.78 -92.2462 1272.75 -124.368 1312.04 -124.368C1351.33 -124.368 1383.29 -92.2462 1383.29 -52.765C1383.29 -13.2839 1351.33 18.8379 1312.04 18.8379Z" stroke="#EBEBEB" stroke-width="10" stroke-miterlimit="10" stroke-linecap="round" stroke-linejoin="round"/>
<path d="M-15.3096 373.959C-54.6001 373.959 -86.5625 341.84 -86.5625 302.356C-86.5625 262.875 -54.6001 230.756 -15.3096 230.756C23.9809 230.756 55.9433 262.875 55.9433 302.356C55.9433 341.84 23.9809 373.959 -15.3096 373.959Z" stroke="#EBEBEB" stroke-width="10" stroke-miterlimit="10" stroke-linecap="round" stroke-linejoin="round"/>
</g>
<defs>
<clipPath id="clip0_178_24112">
<rect width="1440" height="900" fill="white"/>
</clipPath>
</defs>
</svg>
