<svg width="300" height="300" viewBox="-100 -100 500 500" fill="none" style="background-color:#DADADA" xmlns="http://www.w3.org/2000/svg">
<path d="M221.579 213.484C227.17 213.481 232.635 215.136 237.284 218.241C241.934 221.345 245.557 225.759 247.697 230.924C249.836 236.089 250.395 241.772 249.303 247.255C248.211 252.738 245.517 257.773 241.562 261.724C236.462 266.823 229.385 269.998 221.579 269.998H116.722C124.164 269.998 131.137 269.998 137.642 269.946V269.582C131.935 269.49 126.493 267.157 122.491 263.088C118.489 259.018 116.249 253.537 116.254 247.83V213.484H221.579Z" fill="#606060"/>
<path d="M137.641 269.584V269.948C131.136 270 124.163 270 116.722 270H115.577C115.212 270 114.796 269.948 114.432 269.948C112.767 269.844 111.154 269.688 109.54 269.48C108.604 269.324 107.615 269.167 106.626 269.011C105.69 268.855 104.753 268.647 103.816 268.439C102.879 268.231 101.943 267.971 101.006 267.71C100.121 267.45 99.1847 267.19 98.3001 266.878C97.6236 266.67 96.9471 266.409 96.2706 266.149C95.7502 265.993 95.2298 265.785 94.7095 265.525C73.5299 256.938 60 236.748 60 212.706V58.1006C60 50.3469 63.1223 43.3218 68.222 38.222C73.3218 33.1223 80.3469 30 88.1006 30C103.66 30 116.253 42.5932 116.253 58.1006V247.832C116.253 259.748 125.776 269.376 137.641 269.584Z" fill="#8E8E8E"/>
</svg>
