<svg width="100" height="80" viewBox="0 0 100 80" fill="none" xmlns="http://www.w3.org/2000/svg">
<path d="M6.30481 0.772461H30.2206C31.7869 0.772461 33.2337 1.60912 34.0152 2.96639L37.9515 8.34358C38.3354 9.01042 38.8884 9.56432 39.5545 9.94948C40.2207 10.3346 40.9766 10.5374 41.7461 10.5375H99.9998V71.9296C99.9998 75.1539 97.3858 77.7679 94.1616 77.7679H5.83823C2.61396 77.7679 3.69704e-10 75.1539 3.69704e-10 71.9296V17.3478C-1.85391e-05 12.8349 0.697234 8.34917 2.06708 4.04926C2.31104 3.111 2.85948 2.28024 3.6264 1.68722C4.39332 1.0942 5.33536 0.772467 6.30481 0.772461Z" fill="#1744E0"/>
<path d="M9.09961 17.5332C9.09961 13.1149 12.6813 9.5332 17.0996 9.5332H77.9662C82.3845 9.5332 85.9662 13.1149 85.9662 17.5332V34.0039C85.9662 38.4222 82.3845 42.0039 77.9662 42.0039H17.0996C12.6813 42.0039 9.09961 38.4222 9.09961 34.0039V17.5332Z" fill="#D9D9D9"/>
<path d="M95.6213 3.69165H71.5208C70.6816 3.69163 69.86 3.93282 69.1539 4.38648C68.4479 4.84014 67.887 5.48717 67.5383 6.25052L63.4141 15.2763C63.0653 16.0396 62.5045 16.6866 61.7985 17.1403C61.0924 17.5939 60.2708 17.8351 59.4316 17.8351H0V73.389C0 76.6133 2.61396 79.2273 5.83823 79.2273H94.1618C97.386 79.2273 100 76.6133 100 73.389V8.07032C100 5.65218 98.0395 3.69165 95.6213 3.69165Z" fill="#335FFA"/>
</svg>
